<?xml version="1.0" ?><svg xmlns="http://www.w3.org/2000/svg" width="24" height="24" viewBox="0 0 24 24" fill="none"><g id="volume-off" clip-path="url(#clip0_1701_1075)"><g id="outline" filter="url(#filter0_d_1701_1075)"><path fill-rule="evenodd" clip-rule="evenodd" d="M8.88909 3.28254C8.51244 3.65919 7.90177 3.65919 7.52513 3.28254L6.12132 1.87874C5.73079 1.48821 5.09763 1.48821 4.7071 1.87874L1.63604 4.94981C1.37952 5.20632 1.37952 5.62222 1.63604 5.87874L2.37868 6.62138C2.51842 6.76112 2.41945 7.00006 2.22182 7.00006C2.09931 7.00006 2 7.09937 2 7.22188V16.0001C2 16.5523 2.44771 17.0001 3 17.0001H4.75736C5.02257 17.0001 5.27693 17.1054 5.46446 17.2929L8.87868 20.7072C9.06622 20.8947 9.32057 21.0001 9.58578 21.0001H13.5C13.7761 21.0001 14 20.7762 14 20.5001C14 20.2239 14.2241 20.0017 14.4997 19.9846C14.6909 19.9728 14.8804 19.9542 15.068 19.9292C15.4004 19.8847 15.7401 19.9827 15.9772 20.2199L17.8786 22.1213C18.2692 22.5118 18.9023 22.5118 19.2929 22.1213L22.1213 19.2929C22.5118 18.9024 22.5118 18.2692 22.1213 17.8787L21.0627 16.8201C20.8366 16.5939 20.7898 16.2443 20.9486 15.9667C21.618 14.7958 22 13.4395 22 12.0001C22 7.74973 18.6854 4.27358 14.5001 4.01543C14.2245 3.99843 14 3.7762 14 3.50006C14 3.22391 13.7761 3.00006 13.5 3.00006H9.57107C9.31527 3.00006 9.06996 3.10167 8.88909 3.28254Z" fill="white"/></g><g id="icon"><path d="M20 18.5857L5.41421 4L4 5.41421L6.7929 8.2071L6 9H4V15H6L10 19H12V13.4142L14.5485 15.9627C14.3692 15.9873 14.1861 16 14 16V18C14.7684 18 15.503 17.8556 16.1782 17.5924L18.5858 19.9999L20 18.5857Z" fill="#294766"/><path d="M9.61922 5.38078L12 7.76156V5H10L9.61922 5.38078Z" fill="#294766"/><path d="M19.2123 14.9739L17.7176 13.4792C17.8998 13.0216 18 12.5225 18 12C18 9.79086 16.2091 8 14 8V6C17.3137 6 20 8.68629 20 12C20 13.0821 19.7135 14.0973 19.2123 14.9739Z" fill="#294766"/><path d="M14.2545 10.016L15.984 11.7455C15.8695 10.8444 15.1556 10.1305 14.2545 10.016Z" fill="#294766"/></g></g><defs><filter id="filter0_d_1701_1075" x="-0.556335" y="0.0859375" width="24.9705" height="24.8284" filterUnits="userSpaceOnUse" color-interpolation-filters="sRGB"><feFlood flood-opacity="0" result="BackgroundImageFix"/><feColorMatrix in="SourceAlpha" type="matrix" values="0 0 0 0 0 0 0 0 0 0 0 0 0 0 0 0 0 0 127 0" result="hardAlpha"/><feOffset dy="0.5"/><feGaussianBlur stdDeviation="1"/><feComposite in2="hardAlpha" operator="out"/><feColorMatrix type="matrix" values="0 0 0 0 0 0 0 0 0 0 0 0 0 0 0 0 0 0 0.25 0"/><feBlend mode="normal" in2="BackgroundImageFix" result="effect1_dropShadow_1701_1075"/><feBlend mode="normal" in="SourceGraphic" in2="effect1_dropShadow_1701_1075" result="shape"/></filter><clipPath id="clip0_1701_1075"><rect width="24" height="24" fill="white"/></clipPath></defs></svg>