<svg xmlns="http://www.w3.org/2000/svg" width="24" height="24" viewBox="0 0 24 24" fill="none"><g id="volume-high"><g id="outline" filter="url(#filter0_d_1701_1333)"><path d="M14.5001 4.01538C14.2245 3.99838 14 3.77614 14 3.5C14 3.22386 13.7761 3 13.5 3H9.58579C9.32057 3 9.06622 3.10536 8.87868 3.29289L5.46447 6.70711C5.27693 6.89464 5.02258 7 4.75736 7H3C2.44772 7 2 7.44772 2 8V16C2 16.5523 2.44772 17 3 17H4.75736C5.02258 17 5.27693 17.1054 5.46447 17.2929L8.87868 20.7071C9.06622 20.8946 9.32057 21 9.58579 21H13.5C13.7761 21 14 20.7761 14 20.5C14 20.2239 14.2245 20.0016 14.5001 19.9846C18.6854 19.7265 22 16.2503 22 12C22 7.74968 18.6854 4.27352 14.5001 4.01538Z" fill="white"/></g><g id="icon"><path d="M10 5H12V19H10L6 15H4V9H6L10 5Z" fill="#294766"/><path d="M18 12C18 9.79086 16.2091 8 14 8V6C17.3137 6 20 8.68629 20 12C20 15.3137 17.3137 18 14 18V16C16.2091 16 18 14.2091 18 12Z" fill="#294766"/><path d="M16 12C16 13.1046 15.1046 14 14 14V10C15.1046 10 16 10.8954 16 12Z" fill="#294766"/></g></g><defs><filter id="filter0_d_1701_1333" x="0" y="1.5" width="24" height="22" filterUnits="userSpaceOnUse" color-interpolation-filters="sRGB"><feFlood flood-opacity="0" result="BackgroundImageFix"/><feColorMatrix in="SourceAlpha" type="matrix" values="0 0 0 0 0 0 0 0 0 0 0 0 0 0 0 0 0 0 127 0" result="hardAlpha"/><feOffset dy="0.5"/><feGaussianBlur stdDeviation="1"/><feComposite in2="hardAlpha" operator="out"/><feColorMatrix type="matrix" values="0 0 0 0 0 0 0 0 0 0 0 0 0 0 0 0 0 0 0.25 0"/><feBlend mode="normal" in2="BackgroundImageFix" result="effect1_dropShadow_1701_1333"/><feBlend mode="normal" in="SourceGraphic" in2="effect1_dropShadow_1701_1333" result="shape"/></filter></defs></svg>
